<svg xmlns="http://www.w3.org/2000/svg" viewBox="0 0 164.5 60"><defs><style>.cls-1{fill:#2c5ed0;stroke:#979797;}.cls-2{isolation:isolate;}.cls-3{fill:#fff;}</style></defs><title>Page-1</title><g id="Layer_2" data-name="Layer 2"><g id="Layer_1-2" data-name="Layer 1"><g id="Page-1"><g id="Home"><g id="register"><rect id="Rectangle" class="cls-1" x="0.5" y="0.5" width="163.5" height="59" rx="6" ry="6"/><g id="Register-2" data-name="Register" class="cls-2"><g class="cls-2"><path class="cls-3" d="M47.6,31.6v5.5h-3V22.8h4.2a7.4,7.4,0,0,1,4.3,1.1,3.9,3.9,0,0,1,1.4,3.2,4.5,4.5,0,0,1-.7,2.3,6.2,6.2,0,0,1-2,1.5c2.1,3.2,3.5,5.3,4.2,6.2H52.6l-3.4-5.5Zm0-2.4h1a3.6,3.6,0,0,0,2.1-.5,1.6,1.6,0,0,0,.7-1.5,1.6,1.6,0,0,0-.7-1.5,5.7,5.7,0,0,0-2.2-.4h-.9Z"/><path class="cls-3" d="M62.5,37.3a6,6,0,0,1-4.1-1.4,5.7,5.7,0,0,1-1.5-4.2,6.1,6.1,0,0,1,1.4-4.2A4.9,4.9,0,0,1,62.1,26a4.8,4.8,0,0,1,3.6,1.3A4.9,4.9,0,0,1,67,31v1.4H60a2.7,2.7,0,0,0,.7,2,2.6,2.6,0,0,0,2,.7l1.8-.2,1.9-.7v2.3a4.9,4.9,0,0,1-1.7.6Zm-.4-9.2a2,2,0,0,0-1.5.6,3.8,3.8,0,0,0-.6,1.7h4.2a2.4,2.4,0,0,0-.6-1.7A1.8,1.8,0,0,0,62.1,28.1Z"/><path class="cls-3" d="M79,26.2v1.5l-1.8.4a2.6,2.6,0,0,1,.5,1.7,3.2,3.2,0,0,1-1.2,2.7,5.1,5.1,0,0,1-3.4,1h-1a1,1,0,0,0-.4.8c0,.4.5.7,1.6.7h1.8a4.5,4.5,0,0,1,2.8.7,2.9,2.9,0,0,1,.9,2.3,3.3,3.3,0,0,1-1.6,3,8.3,8.3,0,0,1-4.6,1,5.5,5.5,0,0,1-3.4-.8,2.7,2.7,0,0,1-.6-3.9,3.8,3.8,0,0,1,1.8-.9,2.4,2.4,0,0,1-.8-.6,1.4,1.4,0,0,1-.4-1,1.5,1.5,0,0,1,.4-1,2.7,2.7,0,0,1,1-.8,3.7,3.7,0,0,1-1.3-1.2,3.3,3.3,0,0,1-.5-2A3.4,3.4,0,0,1,69.9,27a4.9,4.9,0,0,1,3.4-1H79ZM70.5,38.7a1,1,0,0,0,.6.9,2.9,2.9,0,0,0,1.7.4,5.8,5.8,0,0,0,2.5-.5,1.4,1.4,0,0,0,.9-1.2.8.8,0,0,0-.5-.8,4,4,0,0,0-1.7-.3H72.5a2.6,2.6,0,0,0-1.4.4A1.3,1.3,0,0,0,70.5,38.7Zm1.1-8.9a2.1,2.1,0,0,0,.4,1.4,1.7,1.7,0,0,0,1.3.5,1.7,1.7,0,0,0,1.2-.5,2.9,2.9,0,0,0,.4-1.4c0-1.3-.6-2-1.6-2S71.6,28.5,71.6,29.8Z"/><path class="cls-3" d="M80.7,23.4c0-1,.5-1.5,1.6-1.5s1.6.5,1.6,1.5a1.5,1.5,0,0,1-.4,1.1,2.1,2.1,0,0,1-1.2.3C81.2,24.8,80.7,24.3,80.7,23.4Zm3.1,13.7h-3V26.2h3Z"/><path class="cls-3" d="M94.6,33.9a2.9,2.9,0,0,1-1.2,2.5,8.1,8.1,0,0,1-5.5.7l-1.6-.4V34.2a8.4,8.4,0,0,0,1.9.7l1.8.2c1.1,0,1.6-.3,1.6-.9a1.4,1.4,0,0,0-.2-.6l-.7-.5-1.4-.6-1.9-1a2.8,2.8,0,0,1-.9-1,6.1,6.1,0,0,1-.2-1.5,2.4,2.4,0,0,1,1.1-2.2,5.8,5.8,0,0,1,3.2-.8,10,10,0,0,1,3.8.8L93.5,29,92,28.4l-1.4-.2c-.9,0-1.4.2-1.4.7s.2.5.5.7l1.8.9a6.7,6.7,0,0,1,1.9.9,3.1,3.1,0,0,1,.9,1.1A2.9,2.9,0,0,1,94.6,33.9Z"/><path class="cls-3" d="M101.5,34.9l1.9-.3v2.2a7.2,7.2,0,0,1-2.7.5,3.3,3.3,0,0,1-2.6-.9,3.7,3.7,0,0,1-.9-2.7V28.4H95.8V27.2l1.7-1,.8-2.3h1.9v2.3h3.1v2.2h-3.1v5.3a1,1,0,0,0,.4.9A1.2,1.2,0,0,0,101.5,34.9Z"/><path class="cls-3" d="M110.6,37.3a5.8,5.8,0,0,1-4.1-1.4,5.7,5.7,0,0,1-1.5-4.2,6,6,0,0,1,1.3-4.2,5,5,0,0,1,3.8-1.5,4.5,4.5,0,0,1,3.6,1.3A4.9,4.9,0,0,1,115,31v1.4h-7a3.2,3.2,0,0,0,.7,2,2.7,2.7,0,0,0,2,.7l1.9-.2,1.8-.7v2.3a5.2,5.2,0,0,1-1.6.6Zm-.4-9.2a1.8,1.8,0,0,0-1.5.6,2.4,2.4,0,0,0-.6,1.7h4.1a2.9,2.9,0,0,0-.5-1.7A2,2,0,0,0,110.2,28.1Z"/><path class="cls-3" d="M123.6,26h1l-.2,2.8h-.9a2.9,2.9,0,0,0-2.2.7,2.5,2.5,0,0,0-.8,2.1v5.5h-3V26.2h2.3l.4,1.8h.1a3.8,3.8,0,0,1,1.4-1.4A3.3,3.3,0,0,1,123.6,26Z"/></g></g></g></g></g></g></g></svg>